<svg width="120" height="120" viewBox="0 0 120 120" fill="none" xmlns="http://www.w3.org/2000/svg">
<rect width="120" height="120" rx="25" fill="#4D4D4D"/>
<g filter="url(#filter0_d_3_48)">
<path d="M75 32.7273C76.6568 32.7273 78 34.0704 78 35.7273V38.8182C78 40.475 76.6569 41.8182 75 41.8182H44.8182C43.1613 41.8182 41.8182 40.475 41.8182 38.8182V35.7273C41.8182 34.0704 43.1613 32.7273 44.8182 32.7273H75ZM52.3636 19C52.3636 17.3431 53.7068 16 55.3636 16H60.0909C61.7478 16 63.0909 17.3431 63.0909 19V82.5455C63.0909 85.5758 63.5303 87.8485 64.4091 89.3636C65.3182 90.8485 66.4697 91.8485 67.8636 92.3636C69.2879 92.8485 70.7879 93.0909 72.3636 93.0909C73.5455 93.0909 74.5151 93.0303 75.2727 92.9091V92.9091C76.2842 92.7068 77.2726 93.3478 77.5004 94.3539L78.6948 99.6293C79.0259 101.092 78.218 102.56 76.7544 102.886C76.5843 102.924 76.4085 102.962 76.2273 103C74.9242 103.303 73.2727 103.455 71.2727 103.455C68.2424 103.455 65.2727 102.803 62.3636 101.5C59.4848 100.197 57.0909 98.2121 55.1818 95.5455C53.303 92.8788 52.3636 89.5152 52.3636 85.4545V19Z" fill="black"/>
<path d="M79.451 93.9122C78.9871 91.8636 76.9863 90.5527 74.9274 90.9388C74.3164 91.0342 73.4718 91.0909 72.3636 91.0909C71.0064 91.0909 69.7335 90.8842 68.5341 90.4791C67.6455 90.1447 66.8352 89.4878 66.1278 88.3405C65.518 87.2756 65.0909 85.4301 65.0909 82.5455V43.8182H75C77.7614 43.8182 80 41.5796 80 38.8182V35.7273C80 32.9658 77.7614 30.7273 75 30.7273H65.0909V19C65.0909 16.2386 62.8523 14 60.0909 14H55.3636C52.6022 14 50.3636 16.2386 50.3636 19V30.7273H44.8182C42.0568 30.7273 39.8182 32.9658 39.8182 35.7273V38.8182C39.8182 41.5796 42.0568 43.8182 44.8182 43.8182H50.3636V85.4545C50.3636 89.8257 51.3779 93.6189 53.5468 96.6974L53.5512 96.7035L53.5556 96.7097C55.6613 99.651 58.3274 101.868 61.5389 103.322L61.5461 103.325C64.6987 104.737 67.9461 105.455 71.2727 105.455C73.3478 105.455 75.1572 105.3 76.658 104.953C76.8399 104.915 77.0172 104.877 77.1897 104.838C79.8696 104.241 81.1892 101.589 80.6454 99.1876L79.451 93.9122Z" stroke="#719DC6" stroke-width="4"/>
</g>
<defs>
<filter id="filter0_d_3_48" x="33.8182" y="12" width="52.9454" height="103.455" filterUnits="userSpaceOnUse" color-interpolation-filters="sRGB">
<feFlood flood-opacity="0" result="BackgroundImageFix"/>
<feColorMatrix in="SourceAlpha" type="matrix" values="0 0 0 0 0 0 0 0 0 0 0 0 0 0 0 0 0 0 127 0" result="hardAlpha"/>
<feOffset dy="4"/>
<feGaussianBlur stdDeviation="2"/>
<feComposite in2="hardAlpha" operator="out"/>
<feColorMatrix type="matrix" values="0 0 0 0 0 0 0 0 0 0 0 0 0 0 0 0 0 0 0.25 0"/>
<feBlend mode="normal" in2="BackgroundImageFix" result="effect1_dropShadow_3_48"/>
<feBlend mode="normal" in="SourceGraphic" in2="effect1_dropShadow_3_48" result="shape"/>
</filter>
</defs>
</svg>
