<svg width="317" height="98" viewBox="0 0 317 98" fill="none" xmlns="http://www.w3.org/2000/svg">
<g filter="url(#filter0_d_2_33)">
<mask id="path-1-outside-1_2_33" maskUnits="userSpaceOnUse" x="4" y="0" width="309" height="90" fill="black">
<rect fill="white" x="4" width="309" height="90"/>
<path d="M41.1818 17.7273V26.8182H5V17.7273H41.1818ZM15.5455 1H26.2727V67.5455C26.2727 70.5758 26.7121 72.8485 27.5909 74.3636C28.5 75.8485 29.6515 76.8485 31.0455 77.3636C32.4697 77.8485 33.9697 78.0909 35.5455 78.0909C36.7273 78.0909 37.697 78.0303 38.4545 77.9091C39.2121 77.7576 39.8182 77.6364 40.2727 77.5455L42.4545 87.1818C41.7273 87.4545 40.7121 87.7273 39.4091 88C38.1061 88.303 36.4545 88.4545 34.4545 88.4545C31.4242 88.4545 28.4545 87.803 25.5455 86.5C22.6667 85.197 20.2727 83.2121 18.3636 80.5455C16.4848 77.8788 15.5455 74.5152 15.5455 70.4545V1Z"/>
<path d="M101.318 59V17.7273H112.045V87.5455H101.318V75.7273H100.591C98.9545 79.2727 96.4091 82.2879 92.9545 84.7727C89.5 87.2273 85.1364 88.4545 79.8636 88.4545C75.5 88.4545 71.6212 87.5 68.2273 85.5909C64.8333 83.6515 62.1667 80.7424 60.2273 76.8636C58.2879 72.9545 57.3182 68.0303 57.3182 62.0909V17.7273H68.0455V61.3636C68.0455 66.4545 69.4697 70.5152 72.3182 73.5455C75.197 76.5758 78.8636 78.0909 83.3182 78.0909C85.9849 78.0909 88.697 77.4091 91.4545 76.0455C94.2424 74.6818 96.5758 72.5909 98.4545 69.7727C100.364 66.9545 101.318 63.3636 101.318 59Z"/>
<path d="M160.057 89C153.754 89 148.223 87.5 143.466 84.5C138.739 81.5 135.042 77.303 132.375 71.9091C129.739 66.5151 128.42 60.2121 128.42 53C128.42 45.7273 129.739 39.3788 132.375 33.9545C135.042 28.5303 138.739 24.3182 143.466 21.3182C148.223 18.3182 153.754 16.8182 160.057 16.8182C166.36 16.8182 171.875 18.3182 176.602 21.3182C181.36 24.3182 185.057 28.5303 187.693 33.9545C190.36 39.3788 191.693 45.7273 191.693 53C191.693 60.2121 190.36 66.5151 187.693 71.9091C185.057 77.303 181.36 81.5 176.602 84.5C171.875 87.5 166.36 89 160.057 89ZM160.057 79.3636C164.845 79.3636 168.784 78.1364 171.875 75.6818C174.966 73.2273 177.254 70 178.739 66C180.223 62 180.966 57.6667 180.966 53C180.966 48.3333 180.223 43.9848 178.739 39.9545C177.254 35.9242 174.966 32.6667 171.875 30.1818C168.784 27.697 164.845 26.4545 160.057 26.4545C155.269 26.4545 151.33 27.697 148.239 30.1818C145.148 32.6667 142.86 35.9242 141.375 39.9545C139.89 43.9848 139.148 48.3333 139.148 53C139.148 57.6667 139.89 62 141.375 66C142.86 70 145.148 73.2273 148.239 75.6818C151.33 78.1364 155.269 79.3636 160.057 79.3636Z"/>
<path d="M238.432 17.7273V26.8182H202.25V17.7273H238.432ZM212.795 1H223.523V67.5455C223.523 70.5758 223.962 72.8485 224.841 74.3636C225.75 75.8485 226.902 76.8485 228.295 77.3636C229.72 77.8485 231.22 78.0909 232.795 78.0909C233.977 78.0909 234.947 78.0303 235.705 77.9091C236.462 77.7576 237.068 77.6364 237.523 77.5455L239.705 87.1818C238.977 87.4545 237.962 87.7273 236.659 88C235.356 88.303 233.705 88.4545 231.705 88.4545C228.674 88.4545 225.705 87.803 222.795 86.5C219.917 85.197 217.523 83.2121 215.614 80.5455C213.735 77.8788 212.795 74.5152 212.795 70.4545V1Z"/>
<path d="M283.091 89C276.364 89 270.561 87.5152 265.682 84.5455C260.833 81.5455 257.091 77.3636 254.455 72C251.848 66.6061 250.545 60.3333 250.545 53.1818C250.545 46.0303 251.848 39.7273 254.455 34.2727C257.091 28.7879 260.758 24.5152 265.455 21.4545C270.182 18.3636 275.697 16.8182 282 16.8182C285.636 16.8182 289.227 17.4242 292.773 18.6364C296.318 19.8485 299.545 21.8182 302.455 24.5455C305.364 27.2424 307.682 30.8182 309.409 35.2727C311.136 39.7273 312 45.2121 312 51.7273V56.2727H258.182V47H301.091C301.091 43.0606 300.303 39.5455 298.727 36.4545C297.182 33.3636 294.97 30.9242 292.091 29.1364C289.242 27.3485 285.879 26.4545 282 26.4545C277.727 26.4545 274.03 27.5152 270.909 29.6364C267.818 31.7273 265.439 34.4545 263.773 37.8182C262.106 41.1818 261.273 44.7879 261.273 48.6364V54.8182C261.273 60.0909 262.182 64.5606 264 68.2273C265.848 71.8636 268.409 74.6364 271.682 76.5455C274.955 78.4242 278.758 79.3636 283.091 79.3636C285.909 79.3636 288.455 78.9697 290.727 78.1818C293.03 77.3636 295.015 76.1515 296.682 74.5455C298.348 72.9091 299.636 70.8788 300.545 68.4545L310.909 71.3636C309.818 74.8788 307.985 77.9697 305.409 80.6364C302.833 83.2727 299.652 85.3333 295.864 86.8182C292.076 88.2727 287.818 89 283.091 89Z"/>
</mask>
<path d="M41.1818 17.7273V26.8182H5V17.7273H41.1818ZM15.5455 1H26.2727V67.5455C26.2727 70.5758 26.7121 72.8485 27.5909 74.3636C28.5 75.8485 29.6515 76.8485 31.0455 77.3636C32.4697 77.8485 33.9697 78.0909 35.5455 78.0909C36.7273 78.0909 37.697 78.0303 38.4545 77.9091C39.2121 77.7576 39.8182 77.6364 40.2727 77.5455L42.4545 87.1818C41.7273 87.4545 40.7121 87.7273 39.4091 88C38.1061 88.303 36.4545 88.4545 34.4545 88.4545C31.4242 88.4545 28.4545 87.803 25.5455 86.5C22.6667 85.197 20.2727 83.2121 18.3636 80.5455C16.4848 77.8788 15.5455 74.5152 15.5455 70.4545V1Z" fill="black"/>
<path d="M101.318 59V17.7273H112.045V87.5455H101.318V75.7273H100.591C98.9545 79.2727 96.4091 82.2879 92.9545 84.7727C89.5 87.2273 85.1364 88.4545 79.8636 88.4545C75.5 88.4545 71.6212 87.5 68.2273 85.5909C64.8333 83.6515 62.1667 80.7424 60.2273 76.8636C58.2879 72.9545 57.3182 68.0303 57.3182 62.0909V17.7273H68.0455V61.3636C68.0455 66.4545 69.4697 70.5152 72.3182 73.5455C75.197 76.5758 78.8636 78.0909 83.3182 78.0909C85.9849 78.0909 88.697 77.4091 91.4545 76.0455C94.2424 74.6818 96.5758 72.5909 98.4545 69.7727C100.364 66.9545 101.318 63.3636 101.318 59Z" fill="black"/>
<path d="M160.057 89C153.754 89 148.223 87.5 143.466 84.5C138.739 81.5 135.042 77.303 132.375 71.9091C129.739 66.5151 128.42 60.2121 128.42 53C128.42 45.7273 129.739 39.3788 132.375 33.9545C135.042 28.5303 138.739 24.3182 143.466 21.3182C148.223 18.3182 153.754 16.8182 160.057 16.8182C166.36 16.8182 171.875 18.3182 176.602 21.3182C181.36 24.3182 185.057 28.5303 187.693 33.9545C190.36 39.3788 191.693 45.7273 191.693 53C191.693 60.2121 190.36 66.5151 187.693 71.9091C185.057 77.303 181.36 81.5 176.602 84.5C171.875 87.5 166.36 89 160.057 89ZM160.057 79.3636C164.845 79.3636 168.784 78.1364 171.875 75.6818C174.966 73.2273 177.254 70 178.739 66C180.223 62 180.966 57.6667 180.966 53C180.966 48.3333 180.223 43.9848 178.739 39.9545C177.254 35.9242 174.966 32.6667 171.875 30.1818C168.784 27.697 164.845 26.4545 160.057 26.4545C155.269 26.4545 151.33 27.697 148.239 30.1818C145.148 32.6667 142.86 35.9242 141.375 39.9545C139.89 43.9848 139.148 48.3333 139.148 53C139.148 57.6667 139.89 62 141.375 66C142.86 70 145.148 73.2273 148.239 75.6818C151.33 78.1364 155.269 79.3636 160.057 79.3636Z" fill="black"/>
<path d="M238.432 17.7273V26.8182H202.25V17.7273H238.432ZM212.795 1H223.523V67.5455C223.523 70.5758 223.962 72.8485 224.841 74.3636C225.75 75.8485 226.902 76.8485 228.295 77.3636C229.72 77.8485 231.22 78.0909 232.795 78.0909C233.977 78.0909 234.947 78.0303 235.705 77.9091C236.462 77.7576 237.068 77.6364 237.523 77.5455L239.705 87.1818C238.977 87.4545 237.962 87.7273 236.659 88C235.356 88.303 233.705 88.4545 231.705 88.4545C228.674 88.4545 225.705 87.803 222.795 86.5C219.917 85.197 217.523 83.2121 215.614 80.5455C213.735 77.8788 212.795 74.5152 212.795 70.4545V1Z" fill="black"/>
<path d="M283.091 89C276.364 89 270.561 87.5152 265.682 84.5455C260.833 81.5455 257.091 77.3636 254.455 72C251.848 66.6061 250.545 60.3333 250.545 53.1818C250.545 46.0303 251.848 39.7273 254.455 34.2727C257.091 28.7879 260.758 24.5152 265.455 21.4545C270.182 18.3636 275.697 16.8182 282 16.8182C285.636 16.8182 289.227 17.4242 292.773 18.6364C296.318 19.8485 299.545 21.8182 302.455 24.5455C305.364 27.2424 307.682 30.8182 309.409 35.2727C311.136 39.7273 312 45.2121 312 51.7273V56.2727H258.182V47H301.091C301.091 43.0606 300.303 39.5455 298.727 36.4545C297.182 33.3636 294.97 30.9242 292.091 29.1364C289.242 27.3485 285.879 26.4545 282 26.4545C277.727 26.4545 274.03 27.5152 270.909 29.6364C267.818 31.7273 265.439 34.4545 263.773 37.8182C262.106 41.1818 261.273 44.7879 261.273 48.6364V54.8182C261.273 60.0909 262.182 64.5606 264 68.2273C265.848 71.8636 268.409 74.6364 271.682 76.5455C274.955 78.4242 278.758 79.3636 283.091 79.3636C285.909 79.3636 288.455 78.9697 290.727 78.1818C293.03 77.3636 295.015 76.1515 296.682 74.5455C298.348 72.9091 299.636 70.8788 300.545 68.4545L310.909 71.3636C309.818 74.8788 307.985 77.9697 305.409 80.6364C302.833 83.2727 299.652 85.3333 295.864 86.8182C292.076 88.2727 287.818 89 283.091 89Z" fill="black"/>
<path d="M41.1818 17.7273V26.8182H5V17.7273H41.1818ZM15.5455 1H26.2727V67.5455C26.2727 70.5758 26.7121 72.8485 27.5909 74.3636C28.5 75.8485 29.6515 76.8485 31.0455 77.3636C32.4697 77.8485 33.9697 78.0909 35.5455 78.0909C36.7273 78.0909 37.697 78.0303 38.4545 77.9091C39.2121 77.7576 39.8182 77.6364 40.2727 77.5455L42.4545 87.1818C41.7273 87.4545 40.7121 87.7273 39.4091 88C38.1061 88.303 36.4545 88.4545 34.4545 88.4545C31.4242 88.4545 28.4545 87.803 25.5455 86.5C22.6667 85.197 20.2727 83.2121 18.3636 80.5455C16.4848 77.8788 15.5455 74.5152 15.5455 70.4545V1Z" stroke="#719DC6" stroke-width="2" mask="url(#path-1-outside-1_2_33)"/>
<path d="M101.318 59V17.7273H112.045V87.5455H101.318V75.7273H100.591C98.9545 79.2727 96.4091 82.2879 92.9545 84.7727C89.5 87.2273 85.1364 88.4545 79.8636 88.4545C75.5 88.4545 71.6212 87.5 68.2273 85.5909C64.8333 83.6515 62.1667 80.7424 60.2273 76.8636C58.2879 72.9545 57.3182 68.0303 57.3182 62.0909V17.7273H68.0455V61.3636C68.0455 66.4545 69.4697 70.5152 72.3182 73.5455C75.197 76.5758 78.8636 78.0909 83.3182 78.0909C85.9849 78.0909 88.697 77.4091 91.4545 76.0455C94.2424 74.6818 96.5758 72.5909 98.4545 69.7727C100.364 66.9545 101.318 63.3636 101.318 59Z" stroke="#719DC6" stroke-width="2" mask="url(#path-1-outside-1_2_33)"/>
<path d="M160.057 89C153.754 89 148.223 87.5 143.466 84.5C138.739 81.5 135.042 77.303 132.375 71.9091C129.739 66.5151 128.42 60.2121 128.42 53C128.42 45.7273 129.739 39.3788 132.375 33.9545C135.042 28.5303 138.739 24.3182 143.466 21.3182C148.223 18.3182 153.754 16.8182 160.057 16.8182C166.36 16.8182 171.875 18.3182 176.602 21.3182C181.36 24.3182 185.057 28.5303 187.693 33.9545C190.36 39.3788 191.693 45.7273 191.693 53C191.693 60.2121 190.36 66.5151 187.693 71.9091C185.057 77.303 181.36 81.5 176.602 84.5C171.875 87.5 166.36 89 160.057 89ZM160.057 79.3636C164.845 79.3636 168.784 78.1364 171.875 75.6818C174.966 73.2273 177.254 70 178.739 66C180.223 62 180.966 57.6667 180.966 53C180.966 48.3333 180.223 43.9848 178.739 39.9545C177.254 35.9242 174.966 32.6667 171.875 30.1818C168.784 27.697 164.845 26.4545 160.057 26.4545C155.269 26.4545 151.33 27.697 148.239 30.1818C145.148 32.6667 142.86 35.9242 141.375 39.9545C139.89 43.9848 139.148 48.3333 139.148 53C139.148 57.6667 139.89 62 141.375 66C142.86 70 145.148 73.2273 148.239 75.6818C151.33 78.1364 155.269 79.3636 160.057 79.3636Z" stroke="#719DC6" stroke-width="2" mask="url(#path-1-outside-1_2_33)"/>
<path d="M238.432 17.7273V26.8182H202.25V17.7273H238.432ZM212.795 1H223.523V67.5455C223.523 70.5758 223.962 72.8485 224.841 74.3636C225.75 75.8485 226.902 76.8485 228.295 77.3636C229.72 77.8485 231.22 78.0909 232.795 78.0909C233.977 78.0909 234.947 78.0303 235.705 77.9091C236.462 77.7576 237.068 77.6364 237.523 77.5455L239.705 87.1818C238.977 87.4545 237.962 87.7273 236.659 88C235.356 88.303 233.705 88.4545 231.705 88.4545C228.674 88.4545 225.705 87.803 222.795 86.5C219.917 85.197 217.523 83.2121 215.614 80.5455C213.735 77.8788 212.795 74.5152 212.795 70.4545V1Z" stroke="#719DC6" stroke-width="2" mask="url(#path-1-outside-1_2_33)"/>
<path d="M283.091 89C276.364 89 270.561 87.5152 265.682 84.5455C260.833 81.5455 257.091 77.3636 254.455 72C251.848 66.6061 250.545 60.3333 250.545 53.1818C250.545 46.0303 251.848 39.7273 254.455 34.2727C257.091 28.7879 260.758 24.5152 265.455 21.4545C270.182 18.3636 275.697 16.8182 282 16.8182C285.636 16.8182 289.227 17.4242 292.773 18.6364C296.318 19.8485 299.545 21.8182 302.455 24.5455C305.364 27.2424 307.682 30.8182 309.409 35.2727C311.136 39.7273 312 45.2121 312 51.7273V56.2727H258.182V47H301.091C301.091 43.0606 300.303 39.5455 298.727 36.4545C297.182 33.3636 294.97 30.9242 292.091 29.1364C289.242 27.3485 285.879 26.4545 282 26.4545C277.727 26.4545 274.03 27.5152 270.909 29.6364C267.818 31.7273 265.439 34.4545 263.773 37.8182C262.106 41.1818 261.273 44.7879 261.273 48.6364V54.8182C261.273 60.0909 262.182 64.5606 264 68.2273C265.848 71.8636 268.409 74.6364 271.682 76.5455C274.955 78.4242 278.758 79.3636 283.091 79.3636C285.909 79.3636 288.455 78.9697 290.727 78.1818C293.03 77.3636 295.015 76.1515 296.682 74.5455C298.348 72.9091 299.636 70.8788 300.545 68.4545L310.909 71.3636C309.818 74.8788 307.985 77.9697 305.409 80.6364C302.833 83.2727 299.652 85.3333 295.864 86.8182C292.076 88.2727 287.818 89 283.091 89Z" stroke="#719DC6" stroke-width="2" mask="url(#path-1-outside-1_2_33)"/>
</g>
<defs>
<filter id="filter0_d_2_33" x="0" y="0" width="317" height="98" filterUnits="userSpaceOnUse" color-interpolation-filters="sRGB">
<feFlood flood-opacity="0" result="BackgroundImageFix"/>
<feColorMatrix in="SourceAlpha" type="matrix" values="0 0 0 0 0 0 0 0 0 0 0 0 0 0 0 0 0 0 127 0" result="hardAlpha"/>
<feOffset dy="4"/>
<feGaussianBlur stdDeviation="2"/>
<feComposite in2="hardAlpha" operator="out"/>
<feColorMatrix type="matrix" values="0 0 0 0 0 0 0 0 0 0 0 0 0 0 0 0 0 0 0.25 0"/>
<feBlend mode="normal" in2="BackgroundImageFix" result="effect1_dropShadow_2_33"/>
<feBlend mode="normal" in="SourceGraphic" in2="effect1_dropShadow_2_33" result="shape"/>
</filter>
</defs>
</svg>
